<?xml version="1.0" encoding="UTF-8"?>
<svg id="Layer_2" data-name="Layer 2" xmlns="http://www.w3.org/2000/svg" xmlns:xlink="http://www.w3.org/1999/xlink" viewBox="0 0 166 134">
  <defs>
    <pattern id="New_Pattern_5" data-name="New Pattern 5" x="0" y="0" width="147.62" height="130.16" patternTransform="translate(541 -6)" patternUnits="userSpaceOnUse" viewBox="0 0 147.62 130.16">
      <g>
        <rect x="0" width="147.62" height="130.16" style="fill: none; stroke-width: 0px;"/>
        <g>
          <polyline points="115.52 67.57 98.34 43.86 77.54 19.76" style="fill: none; stroke: #fff; stroke-miterlimit: 10; stroke-width: .25px;"/>
          <path d="m78.27,20.38c.22-.14.61-.44.87-.96.11-.21.15-.37.23-.69.13-.48.27-1.06.22-1.79-.04-.51-.07-.9-.36-1.26-.1-.13-.5-.63-1.06-.54-.51.08-.76.6-.78.65-.06.14-.13.32-.19.54-.04.16-.15.56-.14,1.07.01.35.06.83.25,1.37.26.77.68,1.3.95,1.61Z" style="fill: none; stroke: #fff; stroke-miterlimit: 10; stroke-width: .25px;"/>
          <path d="m78.19,20.81c-.11-.24-.34-.67-.81-1.02-.19-.14-.34-.2-.64-.34-.46-.2-1-.44-1.74-.5-.51-.04-.9-.07-1.3.16-.14.08-.7.39-.7.95,0,.52.47.85.52.88.12.08.29.18.5.27.15.07.53.24,1.03.3.35.05.83.07,1.4-.03.8-.14,1.4-.46,1.74-.68Z" style="fill: none; stroke: #fff; stroke-miterlimit: 10; stroke-width: .25px;"/>
          <path d="m80.27,23.07c-.27-.22-.8-.6-1.56-.74-.3-.06-.51-.05-.95-.04-.65.02-1.43.05-2.31.39-.62.24-1.08.42-1.41.92-.12.17-.57.86-.23,1.52.31.61,1.06.73,1.13.74.19.02.45.04.74.04.22,0,.75-.02,1.38-.22.43-.14,1.01-.39,1.6-.82.84-.61,1.33-1.33,1.6-1.79Z" style="fill: none; stroke: #fff; stroke-miterlimit: 10; stroke-width: .25px;"/>
          <path d="m80.62,22.95c.33-.12.92-.39,1.42-.97.2-.23.3-.42.51-.8.32-.57.68-1.26.83-2.19.1-.65.18-1.14-.08-1.68-.09-.19-.45-.92-1.19-.97-.69-.04-1.16.54-1.21.6-.12.15-.26.36-.41.62-.11.19-.36.66-.5,1.3-.09.44-.17,1.06-.1,1.79.1,1.04.47,1.82.73,2.28Z" style="fill: none; stroke: #fff; stroke-miterlimit: 10; stroke-width: .25px;"/>
          <path d="m82.65,25.65c-.33-.19-.98-.48-1.86-.44-.35.02-.59.08-1.09.22-.75.2-1.63.45-2.6,1.11-.68.46-1.19.8-1.52,1.48-.11.24-.57,1.18-.12,1.87.42.64,1.28.57,1.37.56.22-.03.52-.07.86-.16.25-.07.86-.23,1.56-.65.48-.29,1.11-.74,1.75-1.42.9-.96,1.4-1.95,1.65-2.57Z" style="fill: none; stroke: #fff; stroke-miterlimit: 10; stroke-width: .25px;"/>
          <path d="m82.65,25.56c.36,0,1.04-.03,1.76-.47.29-.17.46-.34.82-.68.54-.51,1.17-1.13,1.7-2.14.37-.7.65-1.23.62-1.96,0-.26-.05-1.26-.74-1.65-.64-.36-1.34.1-1.41.14-.18.12-.4.3-.65.53-.18.17-.62.59-1.02,1.27-.27.47-.61,1.14-.84,2.01-.33,1.24-.31,2.3-.25,2.95Z" style="fill: none; stroke: #fff; stroke-miterlimit: 10; stroke-width: .25px;"/>
          <path d="m85.55,28.83c.39.03,1.12.03,1.93-.43.32-.18.53-.36.94-.73.62-.56,1.35-1.23,2.01-2.35.46-.79.8-1.38.84-2.22.01-.3.06-1.46-.65-1.95-.65-.45-1.44.02-1.52.07-.2.13-.46.32-.74.57-.21.19-.72.64-1.21,1.39-.34.52-.75,1.27-1.08,2.26-.46,1.4-.53,2.63-.52,3.38Z" style="fill: none; stroke: #fff; stroke-miterlimit: 10; stroke-width: .25px;"/>
          <path d="m88.71,32.51c-.17-.35-.43-1.04-.27-2,.06-.38.18-.65.4-1.19.33-.82.74-1.79,1.64-2.88.62-.76,1.09-1.33,1.93-1.72.29-.13,1.45-.67,2.19-.21.69.42.5,1.37.48,1.46-.06.24-.15.56-.3.94-.11.27-.38.94-.96,1.72-.4.53-1.01,1.24-1.88,1.96-1.24,1.02-2.45,1.6-3.21,1.91Z" style="fill: none; stroke: #fff; stroke-miterlimit: 10; stroke-width: .25px;"/>
          <path d="m91.5,35.71c-.15-.38-.34-1.13-.07-2.12.11-.39.25-.66.55-1.2.44-.82.98-1.8,2.03-2.85.74-.73,1.29-1.28,2.21-1.6.32-.11,1.59-.55,2.33,0,.68.51.38,1.48.34,1.58-.09.25-.22.57-.42.95-.15.28-.5.95-1.2,1.7-.48.52-1.2,1.2-2.19,1.86-1.42.95-2.75,1.43-3.58,1.68Z" style="fill: none; stroke: #fff; stroke-miterlimit: 10; stroke-width: .25px;"/>
          <path d="m94.21,38.84c-.1-.38-.19-1.11.24-2.05.17-.37.36-.62.75-1.13.58-.77,1.29-1.67,2.55-2.62.88-.66,1.54-1.16,2.55-1.41.35-.09,1.75-.43,2.44.15.64.54.18,1.45.13,1.54-.13.23-.32.54-.58.89-.19.26-.67.88-1.51,1.57-.58.47-1.43,1.08-2.57,1.66-1.62.82-3.09,1.21-4,1.39Z" style="fill: none; stroke: #fff; stroke-miterlimit: 10; stroke-width: .25px;"/>
          <path d="m96.97,42.57c-.08-.38-.15-1.12.3-2.02.18-.36.37-.6.76-1.08.59-.73,1.29-1.59,2.54-2.46.87-.61,1.52-1.07,2.51-1.26.34-.07,1.7-.33,2.35.28.6.57.12,1.45.07,1.54-.13.23-.32.52-.59.85-.2.25-.67.84-1.5,1.48-.57.43-1.41,1-2.53,1.51-1.59.73-3.02,1.03-3.9,1.16Z" style="fill: none; stroke: #fff; stroke-miterlimit: 10; stroke-width: .25px;"/>
          <path d="m99.63,46.05c-.06-.39-.09-1.12.39-1.99.19-.34.39-.57.79-1.02.6-.69,1.33-1.49,2.58-2.27.87-.54,1.53-.95,2.48-1.07.34-.04,1.66-.21,2.25.45.55.61.04,1.46-.01,1.54-.14.22-.34.49-.61.81-.2.23-.69.79-1.53,1.36-.57.39-1.41.89-2.52,1.32-1.57.61-2.97.81-3.82.88Z" style="fill: none; stroke: #fff; stroke-miterlimit: 10; stroke-width: .25px;"/>
          <path d="m102.31,49.57c-.02-.38.02-1.09.53-1.87.2-.31.4-.5.8-.9.6-.59,1.33-1.29,2.52-1.9.83-.43,1.46-.75,2.33-.76.31,0,1.51-.02,1.99.69.44.65-.09,1.41-.15,1.48-.14.19-.35.44-.62.71-.2.2-.69.68-1.5,1.14-.55.31-1.35.7-2.39.99-1.47.41-2.75.45-3.52.42Z" style="fill: none; stroke: #fff; stroke-miterlimit: 10; stroke-width: .25px;"/>
          <path d="m104.4,52.53c.04-.35.19-1.01.8-1.66.24-.26.47-.41.92-.71.68-.46,1.5-1,2.76-1.39.88-.27,1.54-.48,2.4-.36.3.04,1.48.21,1.84.93.33.67-.3,1.29-.37,1.35-.17.16-.41.36-.72.56-.23.15-.78.53-1.64.84-.59.21-1.43.45-2.49.57-1.5.17-2.76.01-3.51-.13Z" style="fill: none; stroke: #fff; stroke-miterlimit: 10; stroke-width: .25px;"/>
          <path d="m107.05,55.58c.07-.32.27-.91.84-1.44.22-.21.42-.33.82-.56.6-.36,1.31-.77,2.36-1.01.73-.16,1.28-.29,1.95-.1.23.07,1.16.33,1.35,1.03.18.64-.39,1.15-.45,1.21-.15.13-.37.29-.64.45-.2.12-.69.41-1.4.61-.49.13-1.19.27-2.05.28-1.22,0-2.19-.26-2.78-.46Z" style="fill: none; stroke: #fff; stroke-miterlimit: 10; stroke-width: .25px;"/>
          <path d="m85.75,29.05c-.29-.19-.89-.48-1.76-.42-.35.03-.6.1-1.11.25-.77.23-1.68.52-2.76,1.23-.75.5-1.31.87-1.75,1.59-.15.25-.75,1.25-.42,1.97.31.66,1.17.57,1.26.56.23-.03.52-.09.87-.19.26-.08.89-.26,1.65-.72.52-.31,1.22-.8,1.96-1.53,1.05-1.03,1.7-2.08,2.06-2.74Z" style="fill: none; stroke: #fff; stroke-miterlimit: 10; stroke-width: .25px;"/>
          <path d="m88.29,32.31c.02.34,0,.99-.51,1.73-.2.29-.4.48-.8.86-.61.57-1.33,1.24-2.54,1.86-.84.43-1.47.76-2.36.81-.31.02-1.54.1-2.04-.52-.46-.57.06-1.28.12-1.36.14-.18.35-.42.62-.68.2-.19.69-.66,1.5-1.12.56-.31,1.37-.71,2.42-1.03,1.49-.45,2.79-.55,3.58-.57Z" style="fill: none; stroke: #fff; stroke-miterlimit: 10; stroke-width: .25px;"/>
          <path d="m91.13,35.73c.03.38,0,1.1-.52,1.91-.21.32-.42.53-.84.94-.64.63-1.41,1.37-2.68,2.04-.89.47-1.56.83-2.51.89-.33.02-1.64.1-2.17-.58-.5-.63.06-1.42.11-1.5.15-.2.36-.46.65-.75.21-.21.73-.72,1.59-1.23.59-.34,1.45-.78,2.56-1.12,1.58-.5,2.96-.6,3.81-.61Z" style="fill: none; stroke: #fff; stroke-miterlimit: 10; stroke-width: .25px;"/>
          <path d="m93.94,38.72c.08.38.15,1.12-.31,2.04-.18.36-.39.61-.79,1.1-.61.75-1.34,1.63-2.64,2.53-.9.63-1.58,1.1-2.6,1.32-.36.08-1.76.37-2.43-.23-.62-.56-.13-1.46-.07-1.55.14-.23.34-.53.61-.87.2-.25.7-.86,1.56-1.51.59-.45,1.46-1.03,2.63-1.57,1.65-.77,3.13-1.1,4.05-1.25Z" style="fill: none; stroke: #fff; stroke-miterlimit: 10; stroke-width: .25px;"/>
          <path d="m96.85,42.75c.06.39.09,1.13-.41,2-.2.35-.4.58-.81,1.04-.62.7-1.38,1.52-2.67,2.32-.9.56-1.58.98-2.57,1.12-.35.05-1.71.24-2.33-.41-.57-.6-.05-1.46,0-1.55.14-.22.35-.5.63-.82.21-.23.72-.8,1.58-1.39.59-.4,1.46-.92,2.61-1.37,1.63-.64,3.07-.86,3.96-.95Z" style="fill: none; stroke: #fff; stroke-miterlimit: 10; stroke-width: .25px;"/>
          <path d="m99.41,45.82c.11.37.23,1.08-.16,2.01-.15.37-.33.62-.69,1.13-.54.77-1.2,1.68-2.39,2.65-.84.68-1.46,1.19-2.44,1.47-.34.1-1.69.49-2.39-.06-.64-.5-.23-1.41-.18-1.51.12-.23.29-.54.53-.89.18-.26.62-.89,1.42-1.59.55-.48,1.36-1.11,2.45-1.72,1.56-.86,2.98-1.29,3.86-1.5Z" style="fill: none; stroke: #fff; stroke-miterlimit: 10; stroke-width: .25px;"/>
          <path d="m102,49.59c.15.35.37,1.03.17,1.94-.08.36-.2.61-.43,1.12-.35.77-.79,1.68-1.68,2.67-.63.69-1.1,1.22-1.91,1.54-.28.11-1.41.55-2.1.06-.64-.45-.42-1.35-.39-1.44.07-.23.17-.53.33-.88.12-.26.41-.89.99-1.6.4-.49,1.02-1.13,1.88-1.77,1.23-.91,2.41-1.39,3.14-1.64Z" style="fill: none; stroke: #fff; stroke-miterlimit: 10; stroke-width: .25px;"/>
          <path d="m104.23,52.58c.19.3.49.9.42,1.79-.03.35-.11.61-.26,1.13-.24.79-.53,1.72-1.27,2.82-.51.77-.89,1.34-1.64,1.79-.26.16-1.28.78-2.01.44-.68-.31-.58-1.19-.57-1.28.03-.23.09-.53.2-.89.08-.26.27-.91.74-1.68.32-.53.83-1.25,1.57-2.01,1.06-1.08,2.13-1.75,2.81-2.11Z" style="fill: none; stroke: #fff; stroke-miterlimit: 10; stroke-width: .25px;"/>
          <path d="m106.63,55.89c.18.27.48.81.48,1.59,0,.31-.05.53-.15.98-.15.68-.34,1.48-.88,2.4-.38.65-.67,1.13-1.26,1.49-.21.13-1.03.62-1.67.29-.59-.3-.57-1.07-.57-1.15.01-.2.04-.46.11-.77.05-.23.17-.78.52-1.44.24-.45.62-1.05,1.2-1.68.83-.89,1.69-1.43,2.23-1.72Z" style="fill: none; stroke: #fff; stroke-miterlimit: 10; stroke-width: .25px;"/>
        </g>
        <g>
          <path d="m32.15,121.34C27.36,104.4,15.9,89.2,0,81.31c16.06,7.61,27.67,22.99,32.15,40.03h0Z" style="fill: #fff; stroke-width: 0px;"/>
          <path d="m4.98,85.65" style="fill: none; stroke-width: 0px;"/>
          <path d="m5.49,84.44c1.16-1.72,3.31-2.24,5.23-2.58,5.77-.91,12.29-1.79,17.59,1.24,1.28.54,2.2,1.89,2.27,3.22-.22,1.13-1.06,2.08-2.1,2.54,0,0,.03.09.03.09,3.09-.76,6.56.69,8.12,3.4.58,1.84-.97,3.72-2.81,3.89,2.18.6,5.27,1.42,6.01,3.83.56,1.83-1.35,3.29-2.98,3.55,0,0,.45.06.45.06,1.8.23,3.46,1.66,3.81,3.41.14,1.7-1.66,2.97-3.04,3.62,0,0,.18.1.18.1,2.11.99,3.91,3.17,2.12,5.32-.6.68-1.51,1.02-2.41,1,2.97,2.47,2.42,6.02-1.8,6.09l-.42-.02s.35.24.35.24c2.51,1.73,1.23,5.42-1.29,6.36-2.15.76-4.42-1.35-4.17-3.54,0,0,.03-.39.03-.39-.49.96-1.55,1.58-2.59,1.37-1.73-.59-1.3-2.98-.3-4.09-2.35,1-3.84-1.05-3.4-3.26l.04-.18s-.16.09-.16.09c-.62.4-1.55.41-2.14.17l-.66-.65s-.52-.77-.52-.77c-.42-1-.64-2.17-.6-3.28-.04.03-1.04.84-1.1.89-1.66,1.07-2.88-.92-3.41-2.23-.39-1.65-.38-3.4.03-5.05,0,0-.11.06-.11.06-2.01,1.12-3.74,2.8-5.6.35-1.31-1.78-1.3-4.24-.82-6.32-.69.5-1.54.77-2.38.75-3.53-.39-3.17-7.68-3.08-10.32.36-2.98.14-6.28,1.61-8.98h0Zm0,0c-1.48,2.7-1.27,5.99-1.64,8.98-.21,3.49-.37,13.03,5.45,9.68,0,0-.05-.04-.05-.04-.76,2.74-.11,8.02,3.69,7.53.9-.29,2.03-1.1,2.87-1.55l-.08-.06c-.39,1.63-.4,3.35-.02,4.98.29.82.81,1.52,1.36,2.18.61.53,1.57.6,2.24.13,0,0,.99-.8.99-.8,0,0-.11-.05-.11-.05-.02,1.09.19,2.19.61,3.2l.53.79s.68.67.68.67c.73.32,1.62.25,2.31-.15,0,0-.12-.09-.12-.09-.25,1.29.1,2.98,1.43,3.53.6.24,1.29.25,1.9.03,0,0-.1-.14-.1-.14-.95,1.19-1.18,3.6.58,4.15.99.19,2.05-.27,2.58-1.12,0,0-.18-.06-.18-.06-.17,1.72,1.05,3.45,2.74,3.84,3.62.74,6.29-4.66,3.06-6.84,0,0-.07.22-.07.22,1.48-.01,3.36-.59,3.82-2.17.35-1.56-.48-3.16-1.64-4.14,0,0-.07.2-.07.2,2.18,0,3.88-2.65,2.64-4.54-.57-.96-1.58-1.71-2.58-2.19v.19c.38-.18.75-.39,1.08-.63.95-.77,2.06-1.76,1.88-3.12-.38-1.88-2.1-3.31-3.97-3.55,0,0,0,.17,0,.17,2.86-.74,3.79-3.8,1.25-5.61-1.35-.88-2.84-1.54-4.42-1.9,0,0,0,.13,0,.13,1.79-.31,3.15-2.22,2.59-4-.83-1.35-2.08-2.51-3.57-3.08-1.48-.61-3.14-.73-4.69-.37,0,0,.03.09.03.09,1.07-.47,1.93-1.45,2.15-2.61-.08-1.42-1.01-2.73-2.32-3.29-3.47-2.11-7.72-2.14-11.67-1.98-2,.12-3.98.45-5.95.78-1.92.35-4.07.88-5.23,2.6h0Z" style="fill: #fff; stroke-width: 0px;"/>
          <path d="m7.82,85.84c.66,3.49,1.17,7.01,1.5,10.54-.67-3.49-1.16-7.01-1.5-10.54h0Z" style="fill: #fff; stroke-width: 0px;"/>
          <path d="m12.87,89.88c.64,4.73,1.11,9.48,1.42,14.24-.64-4.73-1.11-9.48-1.42-14.24h0Z" style="fill: #fff; stroke-width: 0px;"/>
          <path d="m19.16,96.35c.37,5.04.59,10.09.65,15.15-.37-5.04-.59-10.09-.65-15.15h0Z" style="fill: #fff; stroke-width: 0px;"/>
          <path d="m24.17,103.24c.11,4.08.06,8.15-.16,12.23-.12-4.08-.06-8.15.16-12.23h0Z" style="fill: #fff; stroke-width: 0px;"/>
          <path d="m27.82,109.83c.09,2.6.01,5.19-.24,7.77-.09-2.6-.01-5.19.24-7.77h0Z" style="fill: #fff; stroke-width: 0px;"/>
          <path d="m30.1,115.03c-.1,1.91-.36,3.79-.8,5.65.1-1.91.37-3.79.8-5.65h0Z" style="fill: #fff; stroke-width: 0px;"/>
          <path d="m30.54,116.42c1.44.75,2.8,1.64,4.06,2.67-1.44-.75-2.8-1.64-4.06-2.67h0Z" style="fill: #fff; stroke-width: 0px;"/>
          <path d="m28.21,110.75c2.19.87,4.32,1.88,6.37,3.05-2.19-.86-4.32-1.88-6.37-3.05h0Z" style="fill: #fff; stroke-width: 0px;"/>
          <path d="m24.56,104.01c3.22.96,6.38,2.07,9.48,3.34-3.22-.95-6.38-2.07-9.48-3.34h0Z" style="fill: #fff; stroke-width: 0px;"/>
          <path d="m20.81,98.49c3.79,1.12,7.53,2.4,11.21,3.83-3.79-1.12-7.53-2.4-11.21-3.83h0Z" style="fill: #fff; stroke-width: 0px;"/>
          <path d="m14.65,91.54c4.34.91,8.63,1.98,12.89,3.22-4.34-.91-8.63-1.98-12.89-3.22h0Z" style="fill: #fff; stroke-width: 0px;"/>
          <path d="m7.9,86.06c4.27.16,8.53.49,12.78,1-4.27-.16-8.53-.5-12.78-1h0Z" style="fill: #fff; stroke-width: 0px;"/>
        </g>
      </g>
    </pattern>
  </defs>
  <g id="Layer_1-2" data-name="Layer 1">
    <rect width="166" height="134" style="fill: url(#New_Pattern_5); stroke-width: 0px;"/>
  </g>
</svg>