<?xml version="1.0" encoding="UTF-8"?>
<svg id="Layer_2" data-name="Layer 2" xmlns="http://www.w3.org/2000/svg" viewBox="0 0 113.81 108.77">
  <g id="Layer_1-2" data-name="Layer 1">
    <g>
      <path d="m1.03,21.05c-.2,7.66.34,27,12.69,46.79,3.15,5.05,13.37,20.23,33.38,30.48,20.25,10.37,39,9.8,46.8,9.12" style="fill: none; stroke: #fff; stroke-linecap: round; stroke-miterlimit: 10; stroke-width: 2px;"/>
      <path d="m1.09,23.25C1.09,10.95,14.37,1,30.79,1" style="fill: none; stroke: #fff; stroke-linecap: round; stroke-miterlimit: 10; stroke-width: 2px;"/>
      <path d="m93.9,107.45c10.61-.13,19.07-10.57,18.91-23.33" style="fill: none; stroke: #fff; stroke-linecap: round; stroke-miterlimit: 10; stroke-width: 2px;"/>
      <path d="m31.19,1.71c5.55,13.62,7.75,25.58,4.91,26.74-2.99,1.45-6.09,3.66-7.48,7.14-6.85,17.08,31.31,55.22,49.2,48.07,3.25-1.3,5.38-3.91,6.76-6.2" style="fill: none; stroke: #fff; stroke-linecap: round; stroke-miterlimit: 10; stroke-width: 2px;"/>
      <path d="m84.91,77.01c15.37.41,27.75,3.22,27.67,6.29" style="fill: none; stroke: #fff; stroke-linecap: round; stroke-miterlimit: 10; stroke-width: 2px;"/>
    </g>
  </g>
</svg>