<?xml version="1.0" encoding="UTF-8"?>
<svg id="Layer_2" data-name="Layer 2" xmlns="http://www.w3.org/2000/svg" viewBox="0 0 154.17 194.67">
  <g id="Layer_2-2" data-name="Layer 2">
    <g id="Layer_1-2" data-name="Layer 1-2">
      <g>
        <path d="m36.34,166.81c15.9-.8,26.4-6.2,31.6-9.3,7.4-4.6,10.3-8.7,11-9.7,4.9-7.2,5.4-14.8,5.7-20.6.2-3.6.4-8.6-1.3-14.7-1.8-6.3-4.8-11-6.6-13.8-1.7-2.6-3.5-4.9-4.1-5.7-1.5-1.9-3-3.6-5.9-6.9-3.7-4.3-3.6-4-4.9-5.6-1.4-1.7-3.6-4.4-5.8-7.9-1.3-2-3.5-5.6-5.5-10.7-.9-2.2-2.3-6.2-3.1-11.5-.2-1.2-.3-2.3-.4-3.1-.4-4-.3-7.2-.1-9,0-.4.4-4.5,1.5-8.6.8-2.9,3.1-12.1,10.9-19.2C68.34,2.31,84.64.31,84.64.51c-1.2,2.8-3,6.6-5.8,10.7-2.2,3.2-5.3,7.9-10.3,11.8-7.2,5.6-15.2,7.2-20.3,7.7" style="fill: none; stroke: #231f20; stroke-miterlimit: 10;"/>
        <path d="m74.84,30.91c-.6,1.8-5.2,14.7-17.5,18.5-3.9,1.2-7.4,1.2-10.1.9.6-1.8,1.5-4.2,3.2-6.8,2.2-3.4,4.8-5.6,6.6-6.9,1.9-1.2,4.4-2.6,7.6-3.7,4-1.4,7.6-1.9,10.2-2h0Z" style="fill: none; stroke: #231f20; stroke-miterlimit: 10;"/>
        <path d="m46.34,45.01c.2-1.8.2-5.1-1.2-8.8-1.2-3.2-3-5.4-4.2-6.7-1.5-1.5-3.5-3.2-5.9-4.8-3.6-2.5-7.1-4-9.8-4.9.2,2.6.7,6.2,2.2,10.1,1.1,2.9,2.4,5.2,3.6,7,1.3,1.6,3.7,4.1,7.6,6,3,1.5,5.9,1.9,7.7,2.1Z" style="fill: none; stroke: #231f20; stroke-miterlimit: 10;"/>
        <path d="m123.04,160.41c-1.6.2-3.9.3-6.7.2-3-.1-4.5-.1-5.8-.7-2.9-1.3-4-4.3-5.2-7.2-2.1-5.4-1.8-10.2-1.6-12.5.1-1.8.4-5.1,2-8.8,1.3-3.2,2.8-4.8,7.3-10.2,8.8-10.3,9.6-11.5,10.2-12.4,1.2-1.8,4-6.2,6.1-12,3.9-10.8,3.1-20.2,2.7-24.1-.3-3.2-1.5-12.4-6.9-22.5-2-3.6-4.8-8.9-10.6-14-2.9-2.6-6.8-6-12.9-7.8-8.8-2.5-16.6.2-19.8,1.6,1.4,1.5,3.5,3.3,6.2,5,3.4,2.1,6.6,3.2,8.9,3.8,1.9.5,4.7.9,8,.5,4.5-.5,7.8-2.1,9.7-3.2" style="fill: none; stroke: #231f20; stroke-miterlimit: 10;"/>
        <path d="m110.54,21.91c-.2,1.5-.2,3.4.1,5.6.7,4.2,2.7,7.2,3.9,8.7,1.2-.9,3.3-2.7,4.9-5.9,1.4-2.9,1.7-5.5,1.7-7-.1-2.2-.3-5.1-1.2-8.3-.9-3.4-2.1-6.2-3.2-8.2-1.4,1.8-3.3,4.5-4.7,8.1-.8,2.7-1.3,5.1-1.5,7h0Z" style="fill: none; stroke: #231f20; stroke-miterlimit: 10;"/>
        <path d="m97.64,63.41c-1.7-.6-3.9-1.7-6.3-3.5-2.1-1.6-3.6-3.2-4.6-4.5-1.1-1.7-2.3-4.3-3.2-7.5-1-3.8-1-7.1-.8-9.3,2,.9,4.4,2.3,6.9,4.3,1.7,1.4,3.1,2.8,4.2,4.1,1.1,1.4,2.9,4.1,3.8,8,.8,3.7.3,6.8,0,8.4.7.5,1.9,1.4,3.4,2.4,3.5,2.3,4.7,2.8,6.8,4.3,2.2,1.5,4.2,3,5.8,5.3.9,1.3,2.7,4.4,2.6,9.4" style="fill: none; stroke: #231f20; stroke-miterlimit: 10;"/>
        <path d="m78.94,103.01c-1.4-1.4-3.2-3-5.6-4.5s-4.6-2.6-6.5-3.3c-2.2-.7-5.3-1.4-9.1-1.5-4.9,0-8.8,1.1-11.2,2,1.5,1.8,3.7,4,6.8,6,2.7,1.8,5.2,2.9,7.2,3.6,1.7.6,5,1.6,9.2,1.2,4.5-.4,7.8-2.4,9.2-3.5h0Z" style="fill: none; stroke: #231f20; stroke-miterlimit: 10;"/>
        <path d="m29.64,39.91c-1.8,4.1-2.5,7.5-2.9,9.9-.9,6.1.3,8.8-1,16.1-.2,1.4-.9,3.6-1.6,6.4-.7,2.6-2.3,7.7-6.8,12.3-.9,1-4.1,4.2-9.3,6.4-1.9.8-3.7,1.3-5,1.6-.5.1-2.3.9-2.5,2.2-.2.9.4,1.7,1.1,2.7.5.7,1,1.2,1.6,1.8,1.1,1,2.4,1.9,4.3,3.1,2.1,1.3,2.5,1.5,3.2,2.3.8.9,1.2,1.9,1.5,2.6.3,2.2-.3,3.3-.8,3.9-.7.7-1.5.9-2,1.9-.4.7-.4,1.5-.4,2,0,.6.2,1.8,1,3.1,1.4,2.1,3.7,2.5,4.1,2.5-.6,1.4-.8,2.7-.9,3.5-.2,1.5-.3,2.6.4,3.5.5.7,1.1.6,2,1.2.8.5,1.8,1.5,2.4,3.7-.2,1.8-.3,3.4-.4,4.6-.1,3,.2,4.2.3,4.8.3,1,.7,1.8,1,2.3.4.4,1.1,1,2.1,1.5,3,1.5,6.1.6,9.3-.3,2.8-.8,6.8-1.8,12.4-3.3,1-.2,3.8-.6,6.9.7,3.4,1.5,5.1,4.2,5.5,5.1,1.2,2.7,1.4,5.1,1.4,6.5.1,2.1-.3,3.8-.5,5-.3,1.5-.6,2.7-.9,3.5" style="fill: none; stroke: #231f20; stroke-miterlimit: 10;"/>
        <path d="m74.04,45.41c-2.2,2.1-4.6,4.8-6.6,8.1-.4.6-.8,1.3-1.1,1.9-1.1,1.9-3.1,6.2-2.8,11.8.2,3.1,1,5.5,1.7,7.2,1.8-1,4.6-2.8,6.7-6,.5-.8.9-1.7,1.3-2.5.9-2.9,1.9-7.1,1.9-12.2-.1-3.3-.5-6.1-1.1-8.3h0Z" style="fill: none; stroke: #231f20; stroke-miterlimit: 10;"/>
        <path d="m112.34,160.41c-2.5-.3-8.5-1.5-13.9-6.2-3.6-3.1-5.5-6.5-6.5-8.7-1.7-5.5-2-9.9-2-13,0-4.3.6-6.7.3-11.5-.2-4.1-1-7.4-1.6-9.5-3-9.8-7.2-15.6-10.5-19.2-1.8-1.9-4.6-4.5-7.7-9-2.5-3.6-4.1-6.9-5-9" style="fill: none; stroke: #231f20; stroke-miterlimit: 10;"/>
        <path d="m100.94,136.11c-1.5-3.2-2.8-7.5-2.7-12.5.1-3.4.8-5.9,1.7-9,.9-3.2,2.3-7.3,4.7-12,.6-.9,1.3-2.4,1.9-4.2.4-1.4.6-2.6.8-4.9.3-2.5.4-3.8.4-5.2,0-2.7-.4-5-.9-6.8-.6-1.8-1.7-4.2-3.5-6.7-2.1-3-4.4-5-6.1-6.2-.6,2-1.2,4.7-1.3,7.9-.2,3.8.4,7,1,9.2.6,1.6,1.5,3.4,2.8,5.4,2.3,3.4,4.9,5.6,6.8,7,.3-.8.8-2,1.8-3.3.9-1.1,1.8-1.8,2.5-2.2.7-.5,1.6-1,2.8-1.5,1.9-.7,3.6-.8,4.6-.8-.1.8-.3,1.9-1,3.1-.7,1.4-1.7,2.3-2.3,2.8-.7.5-2.1,1.5-4.1,1.9-1.9.4-3.4.1-4.3-.1" style="fill: none; stroke: #231f20; stroke-miterlimit: 10;"/>
        <path d="m84.94,102.61c1.2-.9,3.6-2.9,5.2-6.4,1.3-2.8,1.5-5.3,1.5-6.8.1-1.9-.1-4.2-.6-6.7-.8-3.9-2.2-7-3.3-9.1-1.6,2.2-3.6,5.3-5,9.4-.9,2.5-1.3,4.8-1.6,6.7,0,1.2,0,2.7.4,4.3.8,3.8,2.6,6.6,3.8,8.2" style="fill: none; stroke: #231f20; stroke-miterlimit: 10;"/>
        <path d="m116.24,108.11c1.7-1.7,3.6-4,5.3-6.9,2.7-4.5,4-8.8,4.7-11.8.4-2.1.7-4.5.9-7.2.1-2.5.1-4.8-.1-6.9.3-1.9.4-4.5.1-7.5-.3-2.8-1-5.1-1.7-6.8-1.1-2-2.5-4.4-4.6-6.8-3.6-4.2-7.4-6.8-10.1-8.4-.2,2.3-.2,5.4.4,9,.6,3.4,1.6,6.1,2.5,8.2,1.3,2,3.2,4.8,6.2,7.4,2.6,2.4,5.2,4,7.2,5" style="fill: none; stroke: #231f20; stroke-miterlimit: 10;"/>
      </g>
      <g style="isolation: isolate;">
        <text transform="translate(3.21 184.49)" style="fill: #231f20; font-family: TeluguMN, &apos;Telugu MN&apos;; font-size: 16px; isolation: isolate; letter-spacing: .12em;"><tspan x="0" y="0">PLANET MINDED</tspan></text>
      </g>
    </g>
  </g>
</svg>