<?xml version="1.0" encoding="UTF-8"?>
<svg id="Layer_2" data-name="Layer 2" xmlns="http://www.w3.org/2000/svg" xmlns:xlink="http://www.w3.org/1999/xlink" viewBox="0 0 434 849">
  <defs>
    <pattern id="New_Pattern_10" data-name="New Pattern 10" x="0" y="0" width="103.41" height="94.15" patternTransform="translate(733.5 320.5)" patternUnits="userSpaceOnUse" viewBox="0 0 103.41 94.15">
      <g>
        <rect x="0" y="0" width="103.41" height="94.15" style="fill: none; stroke-width: 0px;"/>
        <g>
          <path d="m66.71,86.15c14.45-11.19,24.96-27.58,27.45-45.83-.13,2.29-.45,4.57-.87,6.84-3.02,15.9-13.16,30.12-26.58,38.99h0Z" style="fill: #fff; stroke-width: 0px;"/>
          <path d="m91.72,46.75" style="fill: none; stroke-width: 0px;"/>
          <path d="m93.09,46.81c-1.56-.39-3.31.06-6.83.95-2.24.57-4.06,1.18-5.32,1.64-.51.21-1.22.51-2.03.92-.58.29-1.07.54-1.66.92-.51.33-1.19.83-1.93,1.56-.18.21-.53.7-.62,1.41-.06.5.02.89.07,1.05.1.27.25.61.51.97.34.49.73.81,1,1-.6.07-1.36.21-2.2.51-.75.27-1.36.59-1.84.88-.35.2-.88.56-1.37,1.14-.46.55-.72,1.09-.86,1.46-.07.21-.3.94.02,1.77.22.56.59.91.78,1.06l2.03,1.67c-.67.08-1.51.24-2.44.58-1.01.36-1.81.81-2.4,1.2-.32.28-.69.66-1.04,1.15-.24.33-.42.65-.57.93-.05.15-.23.7.01,1.32.18.46.5.73.64.83l1.14.68c-.43.15-.94.37-1.49.7-.58.35-1.04.72-1.38,1.04-.18.2-.39.47-.58.81-.19.32-.31.63-.39.88,0,.23.01.59.16,1,.22.59.6.95.8,1.12-.28.04-.67.13-1.1.34-.38.19-.66.4-.86.58-.15.11-.4.32-.61.66-.19.33-.26.64-.28.82-.02.22-.02.53.07.88.13.53.39.9.56,1.1-.37-.11-.93-.22-1.59-.12-.67.1-1.16.38-1.42.55-.14.11-.44.37-.6.82-.1.29-.11.54-.1.71.04.21.11.48.27.78.11.2.22.37.33.49.1.11.23.22.39.34.36.25.71.37.96.43-.33.09-1.05.34-1.68,1.01-.5.53-.72,1.08-.83,1.4-.1.28-.25.79-.18,1.44.09.85.49,1.43.68,1.67.31.33.96.94,1.98,1.28.75.25,1.41.26,1.82.24.31-.03,1.21-.15,2.03-.87.73-.65.98-1.42,1.06-1.72.13.36.34.85.71,1.34.24.33.49.58.71.78.15.15.68.65,1.54.73.7.06,1.23-.2,1.43-.31.31-.16.69-.41,1.07-.77.74-.7,1.09-1.48,1.25-1.94.12.27.36.76.87,1.2.41.36.82.53,1.09.62.25.07.61.15,1.05.14.58,0,1.04-.16,1.32-.28.27-.19.63-.48.97-.91.25-.32.42-.62.53-.87.13-.28.26-.63.37-1.04.12-.46.16-.87.18-1.2.33.33.79.72,1.41,1.08.46.27.9.44,1.26.56.22.08.63.19,1.14.13.34-.04.61-.15.79-.24.26-.16.59-.41.92-.78.36-.4.59-.81.72-1.1.16-.33.33-.8.42-1.39.11-.76.03-1.39-.06-1.79.18.26.47.62.91.96.42.32.83.49,1.12.59.22.09.65.24,1.2.18.29-.03.53-.12.69-.19.27-.13.65-.37,1.02-.76.51-.55.72-1.14.81-1.46.1-.41.19-.86.25-1.33.2-1.42.15-2.69.02-3.72.15.25.43.63.87.97.52.39,1.03.55,1.33.62.31.07.92.16,1.63-.07.4-.13.7-.31.9-.46.25-.29.54-.68.8-1.17.26-.48.44-.93.55-1.3.2-.65.42-1.65.34-2.87-.12-1.87-.88-3.24-1.3-3.9.31.31,1.09,1,2.25,1.16.39.05.74.03,1.03-.01.34-.15.97-.5,1.51-1.18.71-.9.82-1.86.85-2.23.14-.75.24-1.65.23-2.65-.01-1.78-.35-3.26-.7-4.33-.91-3.37-2.14-6-3.17-7.89-2.06-3.76-3.36-6.27-5.96-6.91Z" style="fill: none; stroke: #fff; stroke-miterlimit: 10;"/>
          <path d="m92.57,49.59c-2.92,2.36-6.18,4.12-9.75,5.27,2.92-2.36,6.18-4.12,9.75-5.27h0Z" style="fill: #fff; stroke-width: 0px;"/>
          <path d="m90.44,55.98c-4.16,2.79-8.63,4.97-13.39,6.53,4.16-2.79,8.63-4.97,13.39-6.53h0Z" style="fill: #fff; stroke-width: 0px;"/>
          <path d="m86.41,64.45c-4.58,2.66-9.43,4.71-14.55,6.1,4.58-2.67,9.44-4.7,14.55-6.1h0Z" style="fill: #fff; stroke-width: 0px;"/>
          <path d="m81.49,71.83c-3.76,2.06-7.77,3.49-11.99,4.26,3.76-2.07,7.77-3.49,11.99-4.26h0Z" style="fill: #fff; stroke-width: 0px;"/>
          <path d="m76.37,77.77c-2.33,1.51-4.9,2.37-7.67,2.58,2.33-1.51,4.9-2.37,7.67-2.58h0Z" style="fill: #fff; stroke-width: 0px;"/>
          <path d="m72.12,81.87c-1.78,1.09-3.73,1.52-5.8,1.26,1.78-1.09,3.73-1.51,5.8-1.26h0Z" style="fill: #fff; stroke-width: 0px;"/>
          <path d="m70.93,82.81c.29,1.78-.09,3.45-1.14,4.92-.29-1.79.1-3.45,1.14-4.92h0Z" style="fill: #fff; stroke-width: 0px;"/>
          <path d="m75.62,78.48c.46,2.49.23,4.95-.68,7.31-.46-2.49-.23-4.95.68-7.31h0Z" style="fill: #fff; stroke-width: 0px;"/>
          <path d="m80.87,72.49c.74,3.47.8,6.97.16,10.46-.74-3.47-.79-6.97-.16-10.46h0Z" style="fill: #fff; stroke-width: 0px;"/>
          <path d="m84.91,66.84c.79,4.09.9,8.21.31,12.33-.79-4.09-.89-8.21-.31-12.33h0Z" style="fill: #fff; stroke-width: 0px;"/>
          <path d="m89.47,58.31c1.18,4.5,1.7,9.09,1.51,13.74-1.19-4.5-1.69-9.09-1.51-13.74h0Z" style="fill: #fff; stroke-width: 0px;"/>
          <path d="m92.37,49.74c1.87,4.08,3.1,8.37,3.64,12.83-1.88-4.08-3.09-8.37-3.64-12.83h0Z" style="fill: #fff; stroke-width: 0px;"/>
        </g>
        <g>
          <path d="m45.94,56.59c-6.33-8.26-12.64-16.85-18.7-25.17C20.96,24.09,11.26,12.76,5.24,5.35c6.42,7.01,16.26,18.32,22.56,25.58,6.13,8.49,12.22,17.01,18.14,25.65h0Z" style="fill: #fff; stroke-width: 0px;"/>
          <path d="m6.02,6.01c-.9-1.35-1.31-3.03-.71-4.52.12-.48.48-.78.8-.73,1.69.39,1.1,4.45-.09,5.25h0Zm0,0c1.9-.82,2.7-5.5.17-6-.76-.1-1.4.58-1.55,1.24-.61,1.66.07,3.68,1.37,4.76h0Z" style="fill: #fff; stroke-width: 0px;"/>
          <path d="m5.94,6.47c-1.47.67-3.2.81-4.58-.03-.45-.2-.69-.6-.59-.9.63-1.6,4.58-.37,5.17.93h0Zm0,0C5.43,4.46.94,2.92.05,5.35c-.22.74.35,1.48.97,1.72,1.54.87,3.64.52,4.92-.6h0Z" style="fill: #fff; stroke-width: 0px;"/>
          <path d="m8.16,8.89c-1.25,1.71-3.24,2.88-5.35,2.65-.65.01-1.23-.35-1.31-.84-.24-2.39,5.2-3.09,6.66-1.82h0Zm0,0c-1.67-1.94-7.79-1.29-7.39,1.97.18.91,1.17,1.43,2,1.4,2.25.18,4.53-1.35,5.39-3.36h0Z" style="fill: #fff; stroke-width: 0px;"/>
          <path d="m8.54,8.76c-.84-1.94-.85-4.25.41-5.95.31-.56.92-.88,1.38-.71,2.18.99.04,6.05-1.79,6.66h0Zm0,0c2.52-.47,5.04-6.07,2.03-7.37-.88-.31-1.83.28-2.21,1.02-1.29,1.86-1.12,4.59.18,6.35h0Z" style="fill: #fff; stroke-width: 0px;"/>
          <path d="m10.71,11.66c-1.2,2.23-3.16,4.2-5.67,4.68-.6.17-1.57.19-1.8-.52-.68-2.69,5.39-5.4,7.47-4.15h0Zm0,0c-2.39-1.82-9.14.97-8.18,4.4.39,1.11,1.68,1.27,2.66.97,2.64-.58,4.73-2.89,5.52-5.37h0Z" style="fill: #fff; stroke-width: 0px;"/>
          <path d="m10.71,11.56c.02-2.45.79-5,2.69-6.57.43-.41,1.22-.9,1.74-.39,1.77,1.96-2.09,7.06-4.43,6.96h0Zm0,0c2.87.46,7.3-5.03,4.94-7.51-.84-.78-2.02-.3-2.71.41-1.96,1.71-2.67,4.63-2.22,7.11h0Z" style="fill: #fff; stroke-width: 0px;"/>
          <path d="m13.83,15.06c.23-2.76,1.21-5.6,3.37-7.37.58-.48,1.39-1.06,2-.43,1.78,2.32-2.69,8.05-5.36,7.8h0Zm0,0c3.12.68,8.26-5.51,5.91-8.31-.93-.98-2.2-.35-3.01.4-2.21,1.92-3.14,5.09-2.91,7.91h0Z" style="fill: #fff; stroke-width: 0px;"/>
          <path d="m17.21,19c2.87-.95,5.61-3.02,6.83-5.88,0,0,.25-.76.25-.76.35-.82.09-2.07-.86-2.38-2.31-.56-4.09,1.44-5.19,3.2-.93,1.73-2.14,3.94-1.03,5.81h0Zm0,0c-1.27-2.55,3.08-9.1,5.96-8.31.89.35.45,1.44.21,2.16-1.1,2.77-3.54,4.79-6.17,6.14h0Z" style="fill: #fff; stroke-width: 0px;"/>
          <path d="m20.2,22.44c3.11-.72,6.21-2.59,7.79-5.47,0,0,.35-.76.35-.76.46-.81.34-2.14-.62-2.56-3.56-1.5-9.09,5.66-7.51,8.79h0Zm0,0c-.62-2.14.98-4.05,2.18-5.62,1.22-1.37,3.12-3.14,5.01-2.5.91.46.33,1.59,0,2.33-1.49,2.78-4.26,4.65-7.18,5.79h0Z" style="fill: #fff; stroke-width: 0px;"/>
          <path d="m23.1,25.79c3.28-.48,6.64-1.96,8.81-4.58,1.68-1.92,1.41-3.99-1.49-3.65-2.89.17-8.34,5.2-7.32,8.23h0Zm0,0c-.19-1.11.25-2.19.98-2.99,1.31-1.71,3.01-3.23,4.91-4.16,2.33-.86,4.47-.43,2.38,2.15-2.05,2.55-5.13,4.1-8.27,5h0Z" style="fill: #fff; stroke-width: 0px;"/>
          <path d="m26.06,29.79c3.45-.33,7.17-1.83,9.18-4.81.63-.72.85-2.05-.08-2.64-2.24-1.07-4.57.44-6.23,1.87-1.45,1.47-3.45,3.33-2.87,5.57h0Zm0,0c-.25-2.23,1.78-3.8,3.24-5.13,1.47-1.14,3.65-2.55,5.44-1.69.57.32.28,1.2-.09,1.63-1.91,2.87-5.3,4.39-8.6,5.19h0Z" style="fill: #fff; stroke-width: 0px;"/>
          <path d="m28.91,33.52c3.13-.06,6.48-1.17,8.65-3.54,0,0,.51-.65.51-.65.64-.66.87-1.98,0-2.59-3.04-2.13-10.01,3.48-9.17,6.78h0Zm0,0c-.12-2.18,1.88-3.63,3.36-4.85,1.47-1.04,3.67-2.3,5.35-1.33.78.59-.13,1.62-.57,2.19-2.07,2.3-5.11,3.49-8.14,3.99h0Z" style="fill: #fff; stroke-width: 0px;"/>
          <path d="m31.78,37.29c2.87.31,6.09-.46,8.23-2.52,0,0,.51-.57.51-.57.6-.61.86-1.76.13-2.44-2.68-2.4-9.39,2.37-8.87,5.53h0Zm0,0c-.12-2.72,6.11-6.82,8.34-5,.63.65-.13,1.42-.62,1.97-1.99,2.03-4.9,2.87-7.73,3.02h0Z" style="fill: #fff; stroke-width: 0px;"/>
          <path d="m34.03,40.46c2.73.71,5.91.51,8.36-1.05,0,0,.59-.45.59-.45.71-.45,1.2-1.58.59-2.31-1.55-1.59-3.95-.95-5.72-.15-1.61.86-3.72,1.94-3.81,3.97h0Zm0,0c.19-.93.8-1.7,1.59-2.14,1.51-1.01,3.29-1.78,5.07-1.94,2.02,0,3.53,1,1.3,2.45-2.3,1.56-5.21,1.89-7.96,1.64h0Z" style="fill: #fff; stroke-width: 0px;"/>
          <path d="m36.86,43.73c2.15.97,4.94,1.05,7.01-.25.82-.45,1.61-1.39,1.07-2.37-1.69-2.68-7.82-.1-8.08,2.62h0Zm0,0c.51-2.14,6.07-4.24,7.43-2.26.34.58-.35,1.13-.8,1.41-1.92,1.29-4.39,1.36-6.63.85h0Z" style="fill: #fff; stroke-width: 0px;"/>
          <path d="m14.03,15.3c-1.51,2.24-3.56,4.24-6.16,5-.66.13-1.67.47-1.9-.34-.4-2.64,5.88-6.01,8.06-4.66h0Zm0,0c-2.37-1.91-9.46,1.55-8.79,4.84.18.92,1.33,1.26,2.12,1,0,0,.71-.16.71-.16,2.7-.88,4.83-3.17,5.96-5.68h0Z" style="fill: #fff; stroke-width: 0px;"/>
          <path d="m16.76,18.79c-3.09-.13-6.55.73-8.71,3.1-.66.57-1.02,1.75-.25,2.39,1.87,1.23,4.11.17,5.76-.91,1.45-1.12,3.46-2.53,3.2-4.58h0Zm0,0c.13,2.63-6.32,6.5-8.47,4.93-.44-.33-.06-1.04.3-1.35,2.03-2.29,5.17-3.22,8.17-3.58h0Z" style="fill: #fff; stroke-width: 0px;"/>
          <path d="m19.8,22.45c-3.31-.14-7.03.85-9.26,3.47-.68.63-.99,1.88-.19,2.54,1.99,1.34,4.4.17,6.13-1.03,1.55-1.23,3.62-2.8,3.32-4.98h0Zm0,0c-.03,2.14-2.1,3.41-3.64,4.5-1.51.91-3.74,1.97-5.32.95-.48-.38-.17-1.13.25-1.52,2.11-2.53,5.49-3.58,8.71-3.93h0Z" style="fill: #fff; stroke-width: 0px;"/>
          <path d="m22.82,25.66c-3.3.36-6.71,1.72-8.96,4.27-1.75,1.86-1.55,3.94,1.36,3.7,2.9-.06,8.52-4.91,7.6-7.97h0Zm0,0c.15,1.12-.32,2.18-1.08,2.95-1.37,1.66-3.12,3.13-5.06,3.99-2.36.78-4.48.28-2.3-2.23,2.14-2.48,5.27-3.91,8.44-4.71h0Z" style="fill: #fff; stroke-width: 0px;"/>
          <path d="m25.93,29.99c-3.47.14-7.25,1.44-9.43,4.31-.67.69-.96,2-.06,2.64,2.18,1.19,4.59-.19,6.32-1.54,1.53-1.39,3.62-3.15,3.16-5.41h0Zm0,0c.13,2.24-1.98,3.7-3.51,4.95-1.52,1.06-3.78,2.35-5.52,1.4-.55-.35-.22-1.22.17-1.63,2.06-2.77,5.53-4.1,8.86-4.73h0Z" style="fill: #fff; stroke-width: 0px;"/>
          <path d="m28.68,33.27c-3.19.58-6.43,2.15-8.44,4.8-1.58,1.94-1.22,3.97,1.6,3.53,2.84-.28,7.95-5.37,6.85-8.32h0Zm0,0c.22,1.08-.16,2.15-.85,2.96-1.22,1.72-2.82,3.27-4.65,4.24-2.24.92-4.34.59-2.39-2,1.91-2.57,4.86-4.19,7.89-5.19h0Z" style="fill: #fff; stroke-width: 0px;"/>
          <path d="m31.45,37.32c-2.79.73-5.53,2.59-6.8,5.28,0,0-.27.71-.27.71-.35.78-.17,1.95.75,2.32,3.37,1.28,7.93-5.54,6.32-8.32h0Zm0,0c1.08,2.51-3.29,8.55-6.02,7.63-.82-.38-.39-1.37-.12-2.06,1.14-2.61,3.56-4.42,6.15-5.57h0Z" style="fill: #fff; stroke-width: 0px;"/>
          <path d="m33.84,40.51c-2.57,1.17-4.91,3.34-5.82,6.09,0,0-.17.72-.17.72-.27.8.06,1.98,1,2.16,3.35.67,6.93-6.56,4.99-8.98h0Zm0,0c1.38,2.25-2.12,8.65-4.81,8.25-.83-.23-.47-1.28-.33-1.96.8-2.66,2.85-4.75,5.14-6.3h0Z" style="fill: #fff; stroke-width: 0px;"/>
          <path d="m36.41,44.06c-2.17.91-4.13,2.88-4.61,5.28-.24.9-.1,2.13.99,2.4,3.1.58,5.42-5.63,3.62-7.68h0Zm0,0c1.21,1.85-1.07,7.29-3.44,6.95-.65-.15-.58-1.03-.47-1.55.38-2.27,2.02-4.12,3.91-5.41h0Z" style="fill: #fff; stroke-width: 0px;"/>
        </g>
      </g>
    </pattern>
  </defs>
  <g id="Layer_2-2" data-name="Layer 2">
    <rect width="434" height="849" style="fill: url(#New_Pattern_10); stroke-width: 0px;"/>
  </g>
</svg>