<?xml version="1.0" encoding="UTF-8"?>
<svg id="Layer_2" data-name="Layer 2" xmlns="http://www.w3.org/2000/svg" viewBox="0 0 118.72 120.5">
  <g id="Layer_1-2" data-name="Layer 1">
    <g>
      <path d="m76.32,111.74s-8.01,2.78-16.96,2.43c-24.2-.95-58.36-21.24-58.36-56.59C1,26.33,27.13,1,59.36,1s58.36,25.33,58.36,56.59c0,15.61-5.38,25.58-13.86,34.43" style="fill: none; stroke: #fff; stroke-miterlimit: 10; stroke-width: 2px;"/>
      <path d="m75.31,112.08c.24-.16.65-.36,1.13-.32.17.01.3.06.9.32.5.21.75.32.98.43.63.3.78.33,1.83.78,1.01.43,1.86.82,2.26,1,1.29.6,1.96,1,2.95,1.53,1.41.75,3.47,1.83,6.08,2.72.87.29,2.03.65,3.51.85,1.92.26,2.77.05,3.21-.08.57-.18,1.43-.45,1.99-1.25.57-.81.54-1.74.52-2.6-.02-.56-.1-.96-.23-1.59-.55-2.64-.7-3.2-.83-3.94-.17-.96-.18-1.77-.22-3.38-.05-2.36-.09-4.18.44-6.48.29-1.26.64-2.22.82-2.69.94-2.41,2.24-4.23,3.3-5.46" style="fill: none; stroke: #fff; stroke-miterlimit: 10; stroke-width: 2px;"/>
      <path d="m43.71,44.03c-.29.52-.67,1.35-.82,2.43-.24,1.76.13,4.43,1.79,5.32.29.15.53.21,3.04.12,3.44-.12,4.16-.27,4.81.26.31.25.59.64.9,2.62.41,2.65.33,4.74.31,5.29,0,0-.09,2.55-.18,5.81-.1,3.98,0,4.97-.21,7.97-.1,1.35-.22,2.64-.25,2.88-.16,1.63-.34,3.02-.49,4.12-2.22.22-4.43.45-6.65.67-.49.04-1.27.17-1.95.71-1.15.9-1.24,2.33-1.33,3.7-.1,1.57-.22,3.53,1.18,4.68.77.63,1.7.77,2.26.8,5.14.16,10.45.24,15.93.21,4.2-.03,8.3-.11,12.3-.25.53-.03,1.55-.17,2.46-.88,1.28-.99,1.49-2.44,1.66-3.63.17-1.21.45-3.17-.83-4.34-.58-.53-1.27-.71-1.73-.79-.6-.11-1.53-.28-2.13-.39-1.67-.3-3.33-.61-5-.91-.67-12.79-1.33-25.57-2-38.36-.04-.28-.24-1.42-1.24-2.1-1.16-.79-2.92-.65-4.24.44-.56.3-1.15.58-1.77.85-4.75,2.03-9.41,2.09-12.87,1.7-.3-.05-1.41-.2-2.35.47-.28.2-.47.42-.61.62Z" style="fill: none; stroke: #fff; stroke-miterlimit: 10; stroke-width: 2px;"/>
      <ellipse cx="60.53" cy="24.7" rx="6.45" ry="6.26" style="fill: none; stroke: #fff; stroke-miterlimit: 10; stroke-width: 2px;"/>
    </g>
  </g>
</svg>