<?xml version="1.0" encoding="utf-8"?>
<!-- Generator: Adobe Illustrator 28.0.0, SVG Export Plug-In . SVG Version: 6.00 Build 0)  -->
<svg version="1.1" xmlns="http://www.w3.org/2000/svg" xmlns:xlink="http://www.w3.org/1999/xlink" x="0px" y="0px"
	 viewBox="0 0 205.1 194.7" style="enable-background:new 0 0 205.1 194.7;" xml:space="preserve">
<style type="text/css">
	.st0{fill:none;stroke:#9FCEA8;stroke-miterlimit:10;}
	.st1{fill:#9FCEA8;stroke:#9FCEA8;stroke-width:0.25;stroke-miterlimit:10;}
	.st2{font-family:'TeluguMN';}
	.st3{font-size:16px;}
	.st4{letter-spacing:1;}
	.st5{fill:#AAD5A7;stroke:#050505;stroke-miterlimit:10;}
</style>
<g id="Layer_3">
</g>
<g id="Layer_2_00000021814204284287294880000003217639787297057440_">
	<g id="Layer_1-2">
		<g>
			<path class="st0" d="M67.7,166.8c15.9-0.8,26.4-6.2,31.6-9.3c7.4-4.6,10.3-8.7,11-9.7c4.9-7.2,5.4-14.8,5.7-20.6
				c0.2-3.6,0.4-8.6-1.3-14.7c-1.8-6.3-4.8-11-6.6-13.8c-1.7-2.6-3.5-4.9-4.1-5.7c-1.5-1.9-3-3.6-5.9-6.9c-3.7-4.3-3.6-4-4.9-5.6
				c-1.4-1.7-3.6-4.4-5.8-7.9c-1.3-2-3.5-5.6-5.5-10.7c-0.9-2.2-2.3-6.2-3.1-11.5c-0.2-1.2-0.3-2.3-0.4-3.1c-0.4-4-0.3-7.2-0.1-9
				c0-0.4,0.4-4.5,1.5-8.6c0.8-2.9,3.1-12.1,10.9-19.2c9-8.2,25.3-10.2,25.3-10c-1.2,2.8-3,6.6-5.8,10.7c-2.2,3.2-5.3,7.9-10.3,11.8
				c-7.2,5.6-15.2,7.2-20.3,7.7"/>
			<path class="st0" d="M106.2,30.9c-0.6,1.8-5.2,14.7-17.5,18.5c-3.9,1.2-7.4,1.2-10.1,0.9c0.6-1.8,1.5-4.2,3.2-6.8
				c2.2-3.4,4.8-5.6,6.6-6.9c1.9-1.2,4.4-2.6,7.6-3.7C100,31.5,103.6,31,106.2,30.9C106.2,30.9,106.2,30.9,106.2,30.9z"/>
			<path class="st0" d="M77.7,45c0.2-1.8,0.2-5.1-1.2-8.8c-1.2-3.2-3-5.4-4.2-6.7c-1.5-1.5-3.5-3.2-5.9-4.8c-3.6-2.5-7.1-4-9.8-4.9
				c0.2,2.6,0.7,6.2,2.2,10.1c1.1,2.9,2.4,5.2,3.6,7c1.3,1.6,3.7,4.1,7.6,6C73,44.4,75.9,44.8,77.7,45z"/>
			<path class="st0" d="M154.4,160.4c-1.6,0.2-3.9,0.3-6.7,0.2c-3-0.1-4.5-0.1-5.8-0.7c-2.9-1.3-4-4.3-5.2-7.2
				c-2.1-5.4-1.8-10.2-1.6-12.5c0.1-1.8,0.4-5.1,2-8.8c1.3-3.2,2.8-4.8,7.3-10.2c8.8-10.3,9.6-11.5,10.2-12.4c1.2-1.8,4-6.2,6.1-12
				c3.9-10.8,3.1-20.2,2.7-24.1c-0.3-3.2-1.5-12.4-6.9-22.5c-2-3.6-4.8-8.9-10.6-14c-2.9-2.6-6.8-6-12.9-7.8
				c-8.8-2.5-16.6,0.2-19.8,1.6c1.4,1.5,3.5,3.3,6.2,5c3.4,2.1,6.6,3.2,8.9,3.8c1.9,0.5,4.7,0.9,8,0.5c4.5-0.5,7.8-2.1,9.7-3.2"/>
			<path class="st0" d="M141.9,21.9c-0.2,1.5-0.2,3.4,0.1,5.6c0.7,4.2,2.7,7.2,3.9,8.7c1.2-0.9,3.3-2.7,4.9-5.9
				c1.4-2.9,1.7-5.5,1.7-7c-0.1-2.2-0.3-5.1-1.2-8.3c-0.9-3.4-2.1-6.2-3.2-8.2c-1.4,1.8-3.3,4.5-4.7,8.1
				C142.6,17.6,142.1,20,141.9,21.9L141.9,21.9z"/>
			<path class="st0" d="M129,63.4c-1.7-0.6-3.9-1.7-6.3-3.5c-2.1-1.6-3.6-3.2-4.6-4.5c-1.1-1.7-2.3-4.3-3.2-7.5
				c-1-3.8-1-7.1-0.8-9.3c2,0.9,4.4,2.3,6.9,4.3c1.7,1.4,3.1,2.8,4.2,4.1c1.1,1.4,2.9,4.1,3.8,8C129.8,58.7,129.3,61.8,129,63.4
				c0.7,0.5,1.9,1.4,3.4,2.4c3.5,2.3,4.7,2.8,6.8,4.3c2.2,1.5,4.2,3,5.8,5.3c0.9,1.3,2.7,4.4,2.6,9.4"/>
			<path class="st0" d="M110.3,103c-1.4-1.4-3.2-3-5.6-4.5s-4.6-2.6-6.5-3.3c-2.2-0.7-5.3-1.4-9.1-1.5c-4.9,0-8.8,1.1-11.2,2
				c1.5,1.8,3.7,4,6.8,6c2.7,1.8,5.2,2.9,7.2,3.6c1.7,0.6,5,1.6,9.2,1.2C105.6,106.1,108.9,104.1,110.3,103
				C110.3,103,110.3,103,110.3,103z"/>
			<path class="st0" d="M61,39.9c-1.8,4.1-2.5,7.5-2.9,9.9c-0.9,6.1,0.3,8.8-1,16.1c-0.2,1.4-0.9,3.6-1.6,6.4
				c-0.7,2.6-2.3,7.7-6.8,12.3c-0.9,1-4.1,4.2-9.3,6.4c-1.9,0.8-3.7,1.3-5,1.6c-0.5,0.1-2.3,0.9-2.5,2.2c-0.2,0.9,0.4,1.7,1.1,2.7
				c0.5,0.7,1,1.2,1.6,1.8c1.1,1,2.4,1.9,4.3,3.1c2.1,1.3,2.5,1.5,3.2,2.3c0.8,0.9,1.2,1.9,1.5,2.6c0.3,2.2-0.3,3.3-0.8,3.9
				c-0.7,0.7-1.5,0.9-2,1.9c-0.4,0.7-0.4,1.5-0.4,2c0,0.6,0.2,1.8,1,3.1c1.4,2.1,3.7,2.5,4.1,2.5c-0.6,1.4-0.8,2.7-0.9,3.5
				c-0.2,1.5-0.3,2.6,0.4,3.5c0.5,0.7,1.1,0.6,2,1.2c0.8,0.5,1.8,1.5,2.4,3.7c-0.2,1.8-0.3,3.4-0.4,4.6c-0.1,3,0.2,4.2,0.3,4.8
				c0.3,1,0.7,1.8,1,2.3c0.4,0.4,1.1,1,2.1,1.5c3,1.5,6.1,0.6,9.3-0.3c2.8-0.8,6.8-1.8,12.4-3.3c1-0.2,3.8-0.6,6.9,0.7
				c3.4,1.5,5.1,4.2,5.5,5.1c1.2,2.7,1.4,5.1,1.4,6.5c0.1,2.1-0.3,3.8-0.5,5c-0.3,1.5-0.6,2.7-0.9,3.5"/>
			<path class="st0" d="M105.4,45.4c-2.2,2.1-4.6,4.8-6.6,8.1c-0.4,0.6-0.8,1.3-1.1,1.9c-1.1,1.9-3.1,6.2-2.8,11.8
				c0.2,3.1,1,5.5,1.7,7.2c1.8-1,4.6-2.8,6.7-6c0.5-0.8,0.9-1.7,1.3-2.5c0.9-2.9,1.9-7.1,1.9-12.2C106.4,50.4,106,47.6,105.4,45.4
				C105.4,45.4,105.4,45.4,105.4,45.4z"/>
			<path class="st0" d="M143.7,160.4c-2.5-0.3-8.5-1.5-13.9-6.2c-3.6-3.1-5.5-6.5-6.5-8.7c-1.7-5.5-2-9.9-2-13
				c0-4.3,0.6-6.7,0.3-11.5c-0.2-4.1-1-7.4-1.6-9.5c-3-9.8-7.2-15.6-10.5-19.2c-1.8-1.9-4.6-4.5-7.7-9c-2.5-3.6-4.1-6.9-5-9"/>
			<path class="st0" d="M132.3,136.1c-1.5-3.2-2.8-7.5-2.7-12.5c0.1-3.4,0.8-5.9,1.7-9c0.9-3.2,2.3-7.3,4.7-12
				c0.6-0.9,1.3-2.4,1.9-4.2c0.4-1.4,0.6-2.6,0.8-4.9c0.3-2.5,0.4-3.8,0.4-5.2c0-2.7-0.4-5-0.9-6.8c-0.6-1.8-1.7-4.2-3.5-6.7
				c-2.1-3-4.4-5-6.1-6.2c-0.6,2-1.2,4.7-1.3,7.9c-0.2,3.8,0.4,7,1,9.2c0.6,1.6,1.5,3.4,2.8,5.4c2.3,3.4,4.9,5.6,6.8,7
				c0.3-0.8,0.8-2,1.8-3.3c0.9-1.1,1.8-1.8,2.5-2.2c0.7-0.5,1.6-1,2.8-1.5c1.9-0.7,3.6-0.8,4.6-0.8c-0.1,0.8-0.3,1.9-1,3.1
				c-0.7,1.4-1.7,2.3-2.3,2.8c-0.7,0.5-2.1,1.5-4.1,1.9c-1.9,0.4-3.4,0.1-4.3-0.1"/>
			<path class="st0" d="M116.3,102.6c1.2-0.9,3.6-2.9,5.2-6.4c1.3-2.8,1.5-5.3,1.5-6.8c0.1-1.9-0.1-4.2-0.6-6.7
				c-0.8-3.9-2.2-7-3.3-9.1c-1.6,2.2-3.6,5.3-5,9.4c-0.9,2.5-1.3,4.8-1.6,6.7c0,1.2,0,2.7,0.4,4.3c0.8,3.8,2.6,6.6,3.8,8.2"/>
			<path class="st0" d="M147.6,108.1c1.7-1.7,3.6-4,5.3-6.9c2.7-4.5,4-8.8,4.7-11.8c0.4-2.1,0.7-4.5,0.9-7.2
				c0.1-2.5,0.1-4.8-0.1-6.9c0.3-1.9,0.4-4.5,0.1-7.5c-0.3-2.8-1-5.1-1.7-6.8c-1.1-2-2.5-4.4-4.6-6.8c-3.6-4.2-7.4-6.8-10.1-8.4
				c-0.2,2.3-0.2,5.4,0.4,9c0.6,3.4,1.6,6.1,2.5,8.2c1.3,2,3.2,4.8,6.2,7.4c2.6,2.4,5.2,4,7.2,5"/>
		</g>
		<text transform="matrix(1 0 0 1 34.556 184.49)" class="st1 st2 st3 st4">PLANET MINDED</text>
	</g>
	<rect x="-212.6" y="-2.3" class="st5" width="80.1" height="87.1"/>
</g>
</svg>
