<?xml version="1.0" encoding="UTF-8"?>
<svg id="Layer_2" data-name="Layer 2" xmlns="http://www.w3.org/2000/svg" viewBox="0 0 117.2 110.39">
  <g id="Layer_2-2" data-name="Layer 2">
    <g>
      <path d="m13.68,14.57c1.71-2.59,3.45-5.16,5.21-7.71,5.72,2.23,10.87,5.64,16.01,8.97,14.95,10.12,28.68,22,40.81,35.36,8.11,8.87,15.18,18.57,22.49,28.08,3.59,4.82,7.34,9.54,10.27,14.83,2.91,5.29,5.16,10.84,7.65,16.28-2.98-5.2-5.5-10.65-8.7-15.66-3.17-4.97-7.15-9.47-10.91-14.11-7.65-9.14-14.9-18.67-22.98-27.43-14.12-15.28-29.84-29.19-47.03-40.95-2.41-1.73-4.95-3.25-7.62-4.55,0,0,.46-.12.46-.12-1.86,2.36-3.75,4.69-5.66,7.01h0Z" style="fill: #fff; stroke-width: 0px;"/>
      <path d="m31.17,3.77c18.96,6.76,35.58,18.86,49.1,33.67,14.39,14.07,24.81,31.9,31.29,50.89,1.86,5.42,3.55,10.91,4.96,16.48,0,0-1.57.15-1.57.15.21-7.18,1.08-14.43.11-21.53-5.21-29-9.32-35.09-30.67-54.87-10.52-9.76-22.48-18.22-35.9-23.44-2.65-.96-5.47-1.43-8.29-1.48-2.9-.53-5.95-.18-8.65,1.01,0,0-.5.22-.5.22,0,0-.45-.31-.45-.31-3.56-2.33-8.57.32-10.76,3.48,0,0-.02.03-.02.03h0c1.08-.27-1.47.39-1.22.32-.56-.29-4.28-2.18-4.89-2.5C10.5,4.31,6.55,1.71,2.83,1.85c0,0-.57,0-.57,0-.14,0-.26.02-.33.05-.08.03-.08.04-.07.04-.22,1.22.95,2.84,1.76,3.87.88,2.32,3.33,4.98,4.93,6.05,0,0,1.55.7,1.55.7.56.23,1.19.53,1.72.67.03,0,.1,0,.17-.03,2.14-1.04,3.56-3.3,5.02-5.14.23-.32.66-.92.87-1.24.05-.06-.07.06.15-.17.9-.74,1.96.42,1.23,1.28-2.14,2.9-4.07,5.76-6.66,8.33-1.05.78-1.61,1.3-2.26,2.3-1.23,3.59-1.56,9.64-.87,14.21.54,4.88,1.62,9.71,3.22,14.36,1.98,4.16,4.66,9.06,7.37,13.18,3.91,6.24,9.27,12.35,14.35,17.7,5.2,5.49,10.89,10.96,16.42,15.88,6.97,5.26,15.12,8.99,23.69,10.81,3.4.48,6.89,1.61,10.25,2.47,3.39.94,6.84,1.43,10.35,1.6,7,.53,13.96,1.75,20.99,1.62-8.78.12-17.52-1.16-26.27-1.75-5.22-.72-10.25-2.66-15.44-3.35-8.69-1.71-17.01-5.36-24.18-10.61-7.6-6.6-15.09-14.01-21.92-21.45-6.9-7.64-12.58-16.35-17.05-25.61-1.67-4.74-2.82-9.67-3.42-14.67-.65-5-.7-10.27.96-15.12.51-1.11,1.78-2.22,2.66-2.87,2.35-2.36,4.38-5.33,6.36-8.04,0,0,.05-.08.05-.08,0,0,.01-.02.01-.02,0,0,0,0,0,0-.17.25-.2.76.05,1.01.17.18.24.23.5.31.25.08.62-.04.77-.19.19-.2.1-.12.12-.13h0s-.12.18-.12.18c0,0-.25.36-.25.36-1.21,1.72-2.44,3.37-3.96,4.86-.87.8-1.89,1.76-3.2,1.78-1.51-.23-2.7-1.01-4.06-1.55-2.48-1.68-4.48-4.06-5.71-6.79,0,0,.12.2.12.2-.54-.67-1.03-1.39-1.44-2.19C-.44,2.61-.48-.23,2.86.02c4.09-.16,8.21,2.47,11.72,4.2.41.22,4.7,2.38,4.9,2.49.27-.06-2.28.59-1.2.31,0,0,0,0,0,0l.02-.03C21.07,2.93,27.26-.03,31.73,2.98c0,0-.94-.1-.94-.1,2.78-1.36,7.1-1.73,9.53-1.2,4.48,0,8.93,1.34,12.94,3.25,17.46,7.72,31.84,20.79,44.85,34.49,1.69,1.83,4.37,4.63,5.74,6.69,5.27,7.12,8.42,15.58,10.29,24.16,1.25,5.71,2.77,11.44,3.05,17.3.07,7.58-.54,15.22-.95,22.75-1.72-7.22-3.64-14.53-6.05-21.54-6.25-18.91-16.5-36.6-30.58-50.75C66.34,23.08,50.01,10.81,31.17,3.77h0Z" style="fill: #fff; stroke-width: 0px;"/>
      <path d="m13.89,14.27c4.4,5.06,8.59,10.3,12.64,15.65,4.06,5.28,7.58,11,12.03,15.93,4.41,4.96,9.11,9.7,13.92,14.28,4.85,4.57,9.89,8.96,15.09,13.13,3.74,3.44,7.59,6.78,11.59,9.94,4.12,3.13,7.74,6.85,11.7,9.88,4.13,3,8.32,5.8,12.74,8.35,4.55,2.53,8.31,6.06,12.52,8.94-4.45-2.48-8.46-5.76-13.05-7.97-4.61-2.25-9.06-4.97-13.38-7.71-4.25-2.95-7.99-6.39-12.15-9.41-3.98-2.98-8.48-6.67-11.83-9.78-5.31-4.16-10.4-8.58-15.25-13.26-4.88-4.66-9.45-9.6-13.83-14.74-4.35-5.2-7.66-11.07-11.42-16.65-3.69-5.57-7.5-11.07-11.31-16.59h0Z" style="fill: #fff; stroke-width: 0px;"/>
      <path d="m9.71,17.29c8.2,26.67,24.26,51.03,46.69,67.73,5.01,3.61,10.32,6.69,15.92,9.37,5.53,2.91,11.13,5.47,17.06,7.36,2.93,1.08,5.86,2.06,8.85,2.87,6.15,1.6,11.76,4.42,17.88,5.76-6.2-.74-12.07-3.36-18.16-4.51-4.48-.78-9.26-2.41-13.64-3.66-4.56-1.37-8.85-3.51-13.12-5.49-5.73-2.6-11.37-5.63-16.52-9.33C31.77,70.68,15.4,45.05,9.71,17.29h0Z" style="fill: #fff; stroke-width: 0px;"/>
    </g>
  </g>
</svg>