<?xml version="1.0" encoding="UTF-8"?>
<svg id="Layer_2" data-name="Layer 2" xmlns="http://www.w3.org/2000/svg" viewBox="0 0 328.48 170.42">
  <g id="Layer_1-2" data-name="Layer 1">
    <g>
      <path d="m37.73,168.42c15.92-.78,26.42-6.17,31.56-9.34,7.42-4.59,10.33-8.71,11-9.67,4.92-7.16,5.36-14.85,5.69-20.6.21-3.64.45-8.61-1.26-14.73-1.76-6.28-4.83-10.99-6.63-13.76-1.67-2.57-3.47-4.89-4.13-5.73-1.5-1.93-2.97-3.62-5.86-6.93-3.72-4.26-3.6-4-4.93-5.62-1.43-1.73-3.59-4.36-5.85-7.88-1.26-1.98-3.53-5.56-5.54-10.73-.86-2.21-2.27-6.25-3.13-11.48-.2-1.24-.34-2.29-.42-3.06-.42-4-.26-7.23-.11-9.03.03-.39.39-4.49,1.49-8.56.79-2.9,3.11-12.12,10.92-19.23,8.99-8.2,25.26-10.19,25.26-10.06-1.19,2.82-3.01,6.59-5.77,10.7-2.16,3.22-5.3,7.91-10.33,11.81-7.19,5.59-15.16,7.19-20.33,7.65" style="fill: none; stroke: #fff; stroke-linecap: round; stroke-miterlimit: 10; stroke-width: 4px;"/>
      <path d="m76.22,32.54c-.62,1.84-5.16,14.67-17.47,18.53-3.88,1.22-7.45,1.2-10.1.88.57-1.83,1.53-4.24,3.2-6.78,2.25-3.4,4.84-5.61,6.64-6.91,1.89-1.23,4.42-2.63,7.57-3.74,4-1.41,7.56-1.86,10.16-1.98Z" style="fill: none; stroke: #fff; stroke-linecap: round; stroke-miterlimit: 10; stroke-width: 4px;"/>
      <path d="m47.73,46.65c.16-1.78.21-5.08-1.22-8.84-1.23-3.22-3.03-5.42-4.21-6.66-1.54-1.53-3.49-3.22-5.88-4.85-3.63-2.47-7.1-3.99-9.83-4.93.17,2.61.69,6.17,2.18,10.13,1.08,2.87,2.39,5.21,3.57,6.99,1.28,1.56,3.73,4.11,7.57,5.98,3.11,1.52,5.95,2.01,7.82,2.18Z" style="fill: none; stroke: #fff; stroke-linecap: round; stroke-miterlimit: 10; stroke-width: 4px;"/>
      <path d="m124.4,162.02c-1.57.15-3.87.31-6.66.24-2.96-.07-4.47-.12-5.76-.71-2.87-1.32-4.03-4.3-5.17-7.22-2.1-5.4-1.79-10.16-1.62-12.45.14-1.83.41-5.08,1.96-8.83,1.31-3.17,2.75-4.82,7.3-10.18,8.76-10.31,9.58-11.47,10.19-12.36,1.25-1.85,4.04-6.22,6.13-12.03,3.89-10.79,3.07-20.17,2.69-24.12-.32-3.25-1.49-12.38-6.92-22.48-1.96-3.64-4.85-8.91-10.59-13.98-2.9-2.56-6.83-6.04-12.93-7.78-8.83-2.52-16.59.21-19.84,1.58,1.44,1.51,3.47,3.33,6.15,5.01,3.4,2.12,6.6,3.23,8.93,3.83,1.86.45,4.66.89,8.02.55,4.47-.46,7.81-2.1,9.66-3.19" style="fill: none; stroke: #fff; stroke-linecap: round; stroke-miterlimit: 10; stroke-width: 4px;"/>
      <path d="m111.89,23.55c-.18,1.46-.25,3.39.14,5.61.73,4.22,2.71,7.2,3.92,8.74,1.18-.88,3.35-2.74,4.91-5.86,1.45-2.9,1.69-5.55,1.73-7-.05-2.24-.32-5.09-1.15-8.31-.87-3.41-2.1-6.17-3.19-8.21-1.45,1.8-3.28,4.51-4.65,8.13-.99,2.63-1.47,5.02-1.7,6.91h-.01Z" style="fill: none; stroke: #fff; stroke-linecap: round; stroke-miterlimit: 10; stroke-width: 4px;"/>
      <path d="m98.97,65.04c-1.67-.63-3.94-1.68-6.29-3.48-2.07-1.58-3.55-3.23-4.55-4.55-1.05-1.74-2.32-4.27-3.16-7.5-.99-3.81-.98-7.1-.81-9.3,1.98.92,4.42,2.29,6.93,4.32,1.73,1.4,3.12,2.81,4.22,4.08,1.07,1.36,2.93,4.08,3.76,8.03.77,3.69.29,6.74-.1,8.39.75.55,1.91,1.39,3.36,2.36,3.5,2.34,4.68,2.77,6.82,4.26,2.15,1.51,4.22,2.96,5.82,5.3.92,1.35,2.66,4.41,2.56,9.41" style="fill: none; stroke: #fff; stroke-linecap: round; stroke-miterlimit: 10; stroke-width: 4px;"/>
      <path d="m80.33,104.67c-1.39-1.37-3.24-2.96-5.6-4.47-2.38-1.53-4.63-2.56-6.47-3.26-2.2-.7-5.34-1.43-9.14-1.47-4.86-.05-8.76,1.06-11.21,1.97,1.5,1.75,3.71,3.97,6.77,6.02,2.66,1.78,5.17,2.91,7.16,3.64,1.65.63,4.97,1.64,9.18,1.17,4.62-.52,7.85-2.55,9.3-3.59h0Z" style="fill: none; stroke: #fff; stroke-linecap: round; stroke-miterlimit: 10; stroke-width: 4px;"/>
      <path d="m31.06,41.57c-1.79,4.1-2.52,7.53-2.86,9.86-.88,6.06.27,8.78-1.04,16.14-.25,1.43-.86,3.57-1.58,6.42-.66,2.61-2.33,7.7-6.75,12.33-.9.95-4.09,4.15-9.3,6.39-1.94.84-3.67,1.33-4.96,1.62-.49.11-2.26.87-2.54,2.25-.18.91.38,1.72,1.09,2.73.51.73,1.03,1.24,1.63,1.76,1.13.99,2.36,1.9,4.29,3.13,2.07,1.32,2.52,1.46,3.23,2.28.81.93,1.23,1.9,1.46,2.57.26,2.18-.28,3.28-.81,3.88-.65.73-1.46.92-2,1.94-.4.74-.42,1.5-.39,1.99.03.6.17,1.83,1,3.06,1.42,2.08,3.72,2.47,4.14,2.53-.58,1.44-.81,2.68-.9,3.55-.16,1.47-.29,2.64.41,3.52.54.69,1.11.62,1.97,1.15.84.52,1.82,1.52,2.44,3.66-.25,1.85-.35,3.42-.39,4.59-.11,3.04.16,4.18.35,4.82.3,1,.69,1.78.98,2.29.42.43,1.11,1.02,2.06,1.5,2.97,1.5,6.09.6,9.31-.28,2.85-.78,6.78-1.83,12.43-3.26,1.01-.2,3.78-.61,6.86.73,3.45,1.51,5.07,4.24,5.54,5.1,1.16,2.74,1.4,5.06,1.44,6.5.06,2.08-.28,3.83-.51,5.02-.28,1.45-.62,2.65-.91,3.52" style="fill: none; stroke: #fff; stroke-linecap: round; stroke-miterlimit: 10; stroke-width: 4px;"/>
      <path d="m75.45,46.99c-2.24,2.13-4.57,4.8-6.62,8.11-.39.63-.76,1.26-1.1,1.88-1.07,1.91-3.1,6.17-2.78,11.78.17,3.06.99,5.53,1.71,7.2,1.83-.95,4.64-2.77,6.71-6.04.54-.85.95-1.68,1.27-2.46.94-2.88,1.93-7.07,1.86-12.16-.04-3.26-.51-6.08-1.05-8.32h0Z" style="fill: none; stroke: #fff; stroke-linecap: round; stroke-miterlimit: 10; stroke-width: 4px;"/>
      <path d="m113.69,162.03c-2.53-.33-8.47-1.47-13.91-6.2-3.56-3.09-5.51-6.5-6.52-8.66-1.67-5.49-2.01-9.94-2.03-12.98-.02-4.32.63-6.66.33-11.51-.25-4.09-1.03-7.38-1.62-9.48-3.01-9.82-7.2-15.63-10.53-19.15-1.76-1.86-4.59-4.45-7.73-9.02-2.48-3.61-4.07-6.86-5.02-9.05" style="fill: none; stroke: #fff; stroke-linecap: round; stroke-miterlimit: 10; stroke-width: 4px;"/>
      <path d="m102.33,137.71c-1.46-3.19-2.8-7.49-2.66-12.54.09-3.38.8-5.93,1.67-9.04.89-3.17,2.32-7.32,4.72-11.98.56-.94,1.31-2.37,1.87-4.23.42-1.41.56-2.59.83-4.91.29-2.5.45-3.75.43-5.19-.03-2.71-.44-5.02-.9-6.79-.64-1.81-1.69-4.21-3.47-6.72-2.1-2.98-4.41-4.99-6.11-6.24-.61,2.01-1.2,4.71-1.33,7.93-.15,3.8.41,6.97.99,9.2.59,1.56,1.46,3.42,2.76,5.36,2.28,3.41,4.93,5.62,6.83,6.95.28-.82.8-2.02,1.78-3.26.87-1.09,1.79-1.8,2.47-2.25.68-.48,1.6-1.03,2.77-1.46,1.88-.7,3.55-.8,4.63-.77-.1.75-.33,1.89-.98,3.13-.73,1.4-1.66,2.31-2.26,2.82-.68.54-2.09,1.51-4.13,1.91-1.86.37-3.4.1-4.27-.12" style="fill: none; stroke: #fff; stroke-linecap: round; stroke-miterlimit: 10; stroke-width: 4px;"/>
      <path d="m86.31,104.22c1.22-.89,3.63-2.9,5.22-6.36,1.29-2.81,1.47-5.35,1.46-6.8.05-1.86-.06-4.15-.56-6.72-.77-3.91-2.16-7-3.33-9.11-1.61,2.16-3.57,5.29-4.99,9.39-.86,2.48-1.33,4.76-1.59,6.69-.03,1.23.04,2.69.37,4.31.77,3.83,2.56,6.61,3.79,8.2" style="fill: none; stroke: #fff; stroke-linecap: round; stroke-miterlimit: 10; stroke-width: 4px;"/>
      <path d="m117.66,109.75c1.66-1.73,3.56-4.02,5.31-6.93,2.71-4.51,4.02-8.77,4.69-11.84.4-2.11.73-4.54.87-7.25.13-2.53.07-4.84-.08-6.87.27-1.91.44-4.49.09-7.49-.33-2.8-1.01-5.12-1.65-6.85-1.06-2.03-2.53-4.41-4.59-6.84-3.55-4.19-7.37-6.8-10.14-8.37-.21,2.29-.25,5.4.38,8.99.59,3.38,1.6,6.13,2.51,8.16,1.27,2.05,3.23,4.75,6.16,7.39,2.64,2.38,5.23,3.97,7.25,5.01" style="fill: none; stroke: #fff; stroke-linecap: round; stroke-miterlimit: 10; stroke-width: 4px;"/>
    </g>
    <text transform="translate(132.4 147.88)" style="fill: #fff; font-family: TeluguMN, &apos;Telugu MN&apos;; font-size: 25px; letter-spacing: .09em;"><tspan x="0" y="0">SIX AND SONS</tspan></text>
  </g>
</svg>